PathFileType	4	(X/Y/Z)	Kaydara	
DataRate	CameraRate	NumFrames	NumMarkers	Units	OrigDataRate	OrigDataStartFrame	OrigNumFrames	
60.00	60.00	4	74	mm	60.00	614	250	
Frame#	Time	N_lasi			N_rasi			N_rpsi			N_lpsi			N_fneck			N_bneck			N_fhead			N_rhead			N_lhead			N_rshld			N_relbtop			N_relbext			N_relblow			N_rwrext			N_rwrtop			N_rwrlow			N_lshld			N_lelbext			N_lelblow			N_lelbtop			N_lwrext			N_lwrtop			N_lwrlow			N_rtopleg			N_ltopleg			N_rkneefr			N_rkneebk			N_rkneeis			N_lkneefr			N_lknssbk			N_lkneeis			N_rankfr			N_rankis			N_rankbk			N_lankfr			N_lankbk			N_lankis			D_lasi			D_rasi			D_rpsi			D_lpsi			D_fneck			D_bneck			D_fhead			D_rhead			D_lhead			D_rshld			D_relbtop			D_relbext			D_relblow			D_rwrext			D_rwrtop			D_rwrlow			D_lshld			D_lelbext			D_lelblow			D_lelbtop			D_lwrext			D_lwrtop			D_lwrlow			D_rtopleg			D_ltopleg			D_rkneefr			D_rkneebk			D_rkneeis			D_lkneefr			D_lknssbk			D_lkneeis			D_rankfr			D_rankis			D_rankbk			D_lankfr			D_lankbk			D_lankis			
		X1	Y1	Z1	X2	Y2	Z2	X3	Y3	Z3	X4	Y4	Z4	X5	Y5	Z5	X6	Y6	Z6	X7	Y7	Z7	X8	Y8	Z8	X9	Y9	Z9	X10	Y10	Z10	X11	Y11	Z11	X12	Y12	Z12	X13	Y13	Z13	X14	Y14	Z14	X15	Y15	Z15	X16	Y16	Z16	X17	Y17	Z17	X18	Y18	Z18	X19	Y19	Z19	X20	Y20	Z20	X21	Y21	Z21	X22	Y22	Z22	X23	Y23	Z23	X24	Y24	Z24	X25	Y25	Z25	X26	Y26	Z26	X27	Y27	Z27	X28	Y28	Z28	X29	Y29	Z29	X30	Y30	Z30	X31	Y31	Z31	X32	Y32	Z32	X33	Y33	Z33	X34	Y34	Z34	X35	Y35	Z35	X36	Y36	Z36	X37	Y37	Z37	X38	Y38	Z38	X39	Y39	Z39	X40	Y40	Z40	X41	Y41	Z41	X42	Y42	Z42	X43	Y43	Z43	X44	Y44	Z44	X45	Y45	Z45	X46	Y46	Z46	X47	Y47	Z47	X48	Y48	Z48	X49	Y49	Z49	X50	Y50	Z50	X51	Y51	Z51	X52	Y52	Z52	X53	Y53	Z53	X54	Y54	Z54	X55	Y55	Z55	X56	Y56	Z56	X57	Y57	Z57	X58	Y58	Z58	X59	Y59	Z59	X60	Y60	Z60	X61	Y61	Z61	X62	Y62	Z62	X63	Y63	Z63	X64	Y64	Z64	X65	Y65	Z65	X66	Y66	Z66	X67	Y67	Z67	X68	Y68	Z68	X69	Y69	Z69	X70	Y70	Z70	X71	Y71	Z71	X72	Y72	Z72	X73	Y73	Z73	X74	Y74	Z74	

63	10.217	-875.12817	1097.17773	-220.81606	-1011.60248	1129.75357	-432.50481	-797.91428	1181.76193	-617.55638	-598.65917	1148.07579	-325.07813	-688.17848	1531.06216	-442.59953	-790.97595	1631.94550	-412.39662	-929.91745	1684.57397	-205.70156	-877.44980	1731.60095	-397.38976	-776.83609	1711.07208	-279.22138	-950.17616	1489.37836	-603.30055	-958.03986	1174.74060	-719.34647	-920.59807	1151.37230	-634.89380	-1014.52499	1179.66164	-650.76233	-1035.03967	873.94615	-676.30783	-1064.28001	879.44298	-638.47412	-1034.86855	880.62088	-600.14050	-622.95158	1476.47690	-224.04253	-633.16551	1122.84058	-253.70012	-634.13727	1138.09532	-148.86391	-562.73052	1132.75803	-200.27584	-631.56563	839.27658	-153.14232	-674.21158	836.94550	-130.55499	-698.62930	839.56558	-178.10221	-992.76390	976.11893	-584.54243	-627.00920	971.94717	-260.43839	-1029.31137	537.13905	-432.74376	-936.04660	529.65229	-540.33855	-904.82117	517.16454	-397.31098	-784.51065	444.49028	-291.84078	-671.80817	520.15739	-315.96842	-761.32835	495.10811	-429.92748	-1003.79128	132.14865	-522.83741	-956.80473	132.36685	-460.33745	-907.53036	117.88968	-529.61140	-537.42165	232.03312	-482.51987	-474.73911	288.27118	-485.70763	-543.78990	276.61615	-544.41051	314.83484	1057.71652	541.87279	585.67513	1070.47646	634.06746	472.11433	1156.54198	813.13622	267.74445	1138.32870	737.68730	427.59632	1549.11850	573.54866	418.47038	1622.10403	693.74229	407.05589	1722.78473	462.00935	500.88028	1754.97513	617.78923	346.09669	1744.12689	628.52345	626.40808	1498.26874	670.76904	718.18954	1167.12997	710.28610	653.93318	1153.35938	669.15779	743.17474	1199.93080	631.29383	805.40283	953.26775	598.96843	796.13853	967.37289	541.19324	742.46132	959.78729	550.36163	195.82996	1513.58383	667.50793	204.56764	1177.04002	683.56979	113.44606	1218.33412	661.11008	141.51271	1189.83315	732.53494	77.81821	959.88678	648.12157	89.71514	966.20743	605.67677	141.10138	964.93034	605.95360	614.01733	1015.60226	733.55843	218.97755	1015.63309	649.40903	591.89049	488.49903	604.03656	601.08776	500.42652	711.50681	481.89774	479.18968	677.64183	323.89587	490.43137	439.08939	281.02325	544.59190	537.96886	400.74657	496.64673	506.85143	600.68245	144.92027	638.73188	534.99626	143.07765	653.12851	588.02563	136.51698	720.09819	292.13175	244.23344	710.11810	259.99542	283.58078	758.44925	344.38869	269.62418	745.35728 
64	10.233	-883.37631	1099.94629	-213.64580	-1024.96132	1131.77963	-422.89795	-815.36324	1185.09529	-611.16947	-609.11007	1150.91789	-322.99484	-702.93236	1534.00070	-435.81261	-805.72983	1634.88403	-405.60974	-941.33751	1686.85547	-196.41258	-891.71440	1734.27444	-389.00574	-789.32953	1713.46588	-272.39183	-969.14154	1493.16345	-593.09582	-982.73094	1178.08952	-708.82652	-941.00304	1155.12024	-628.10669	-1037.18246	1184.16580	-638.86265	-1062.79449	879.20715	-658.53951	-1091.03226	885.95505	-620.12341	-1060.66452	886.35727	-582.14947	-633.71696	1479.75632	-220.78018	-641.49933	1126.23421	-252.93674	-639.60114	1140.47531	-148.94291	-569.05735	1136.72173	-202.13961	-626.46023	842.00249	-155.51268	-668.78609	837.38022	-132.48946	-693.79936	839.33792	-179.79382	-1007.86682	977.83371	-576.48659	-637.23759	976.10199	-257.95897	-1033.67035	535.89336	-430.13840	-941.80893	530.74947	-539.28703	-908.47900	517.07359	-397.24285	-810.59738	450.92930	-267.84384	-698.60420	525.28843	-295.82554	-789.22722	501.20502	-408.09444	-1004.29268	132.01231	-522.13200	-956.84929	132.60721	-459.85180	-907.96997	118.43825	-529.68433	-565.02644	244.58652	-469.42719	-503.89450	301.84586	-473.66169	-573.82622	289.95182	-530.95982	317.71692	1059.47800	533.58391	589.77924	1070.89172	621.83834	479.05468	1158.99384	799.88380	272.59575	1139.84177	730.68665	428.95214	1550.09506	563.05752	422.26471	1623.31299	683.20549	405.84229	1723.35983	451.35796	502.80632	1756.15295	605.67177	348.22948	1745.03204	619.10248	629.86877	1500.19058	656.12160	724.35089	1168.71315	689.09042	659.45816	1155.79521	647.97089	747.61406	1203.57201	609.77081	810.37354	958.70018	568.74603	799.37416	973.88710	512.00031	746.07872	965.53627	522.36523	199.37609	1514.84436	662.18208	208.30780	1178.99178	681.70387	116.44940	1220.01381	662.06543	147.30028	1192.06787	732.62367	81.39845	961.27502	652.02179	91.46329	967.42119	609.07169	142.90327	966.45142	607.29939	618.59299	1015.86411	720.48576	222.32708	1018.02902	641.77849	591.27567	487.64996	600.09846	601.73435	500.68817	707.55760	482.16991	479.73763	675.21744	327.98302	497.63363	418.71952	285.31273	547.69329	520.08984	405.56587	502.87319	485.68489	599.78340	144.71932	637.15015	533.92723	143.01524	652.43271	587.62238	136.99255	718.56689	309.59194	240.35898	679.56650	273.80655	277.93867	731.61400	358.29346	266.30487	716.60194 
65	10.250	-891.05873	1101.92200	-206.02121	-1037.78069	1132.90970	-412.87949	-831.77689	1188.43346	-605.06199	-619.10336	1153.45024	-321.00647	-717.09053	1537.22382	-428.54450	-819.88800	1638.10730	-398.34160	-952.27982	1689.13574	-186.83701	-905.50201	1737.16583	-380.37643	-801.26938	1716.04797	-265.53015	-987.50328	1496.64169	-582.37289	-1006.98814	1181.37657	-697.80380	-962.12029	1158.59161	-619.85260	-1059.09904	1188.49533	-626.34117	-1089.55063	884.71497	-639.85409	-1116.24657	892.68959	-600.45666	-1085.43495	892.47192	-563.24013	-643.78960	1482.85355	-217.64317	-648.05733	1129.30168	-253.16639	-644.90044	1142.67448	-148.72020	-575.89123	1140.73860	-203.64506	-622.49229	844.87259	-158.08677	-664.13773	838.19633	-134.82116	-689.30756	839.63387	-182.11657	-1022.05612	978.72429	-568.14827	-647.17148	981.11305	-254.99094	-1037.41089	534.49028	-427.91027	-947.19780	531.90506	-538.80753	-912.47101	517.87548	-395.03418	-834.24614	459.52778	-243.06490	-723.51799	532.44228	-276.38880	-817.21947	508.23128	-384.52885	-1004.88251	131.82678	-521.80504	-956.75453	132.62550	-459.85161	-908.51395	118.74420	-530.14904	-594.02065	255.71943	-454.52053	-534.48696	313.74054	-461.46534	-606.06091	300.95943	-515.95341	320.06226	1060.45181	526.79955	593.03707	1070.75890	610.18818	484.16481	1160.28618	788.29033	277.38348	1140.90599	723.65723	429.82895	1550.57678	552.16812	425.64194	1623.93723	672.44446	404.39621	1723.83865	440.83431	504.35112	1756.86386	593.04497	350.23518	1745.57922	609.70352	632.94781	1501.75293	641.34590	729.05769	1169.93225	664.65645	663.97209	1158.04665	626.39313	751.59035	1206.93489	588.93108	814.17038	963.98140	538.83854	801.61507	980.55908	483.33012	748.48732	971.58699	494.63078	202.80622	1515.50400	656.41655	211.84431	1180.39429	679.06151	119.50294	1221.00189	662.57454	152.74575	1193.76869	732.32468	85.02750	962.07901	655.43533	93.53414	968.16528	611.94519	144.76040	967.38373	608.24585	623.07106	1015.81886	709.57932	225.17134	1019.74663	633.82061	590.67505	486.88622	596.24180	602.42779	501.05598	703.39432	482.35741	480.20866	672.72728	331.44676	504.11488	399.83028	289.45139	550.24784	503.25596	409.60770	508.46806	465.96451	598.98975	144.49427	635.59292	533.00766	143.03757	651.46164	587.24777	137.67754	717.19536	325.10506	234.83171	648.09914	286.69083	270.56952	703.94867	371.40980	260.96914	686.58218 
66	10.267	-898.50128	1103.32008	-198.28758	-1050.18150	1133.41141	-402.79716	-847.39906	1191.77513	-599.34410	-630.41840	1158.14026	-320.42835	-730.89981	1540.52826	-421.30211	-833.69736	1641.41174	-391.09921	-962.61429	1691.39984	-176.93745	-919.05075	1740.28198	-371.17748	-812.90771	1718.78937	-258.33744	-1004.88777	1500.00351	-571.21284	-1030.67589	1184.59816	-686.35635	-983.99048	1162.25510	-610.25215	-1080.19241	1192.76016	-613.18401	-1115.89432	890.35812	-621.30878	-1140.37674	899.42268	-580.31532	-1108.30040	898.71208	-544.80408	-653.33328	1485.78766	-214.63873	-653.96774	1132.30713	-253.02288	-649.96811	1144.85855	-148.31480	-581.31523	1143.99979	-204.07125	-619.52717	848.01758	-160.71827	-660.77927	839.51828	-137.32181	-686.97647	841.07193	-184.03236	-1034.03053	978.95851	-560.45856	-656.98967	986.68365	-250.77351	-1040.59494	533.26447	-426.02638	-951.86180	533.11756	-538.37719	-914.68681	518.19580	-395.05177	-856.08025	469.49043	-218.12679	-747.29324	539.91768	-257.66342	-844.37027	514.45080	-361.03912	-1005.62485	132.08670	-521.65993	-956.82724	132.88411	-459.97211	-909.22279	119.57480	-530.93487	-624.48540	263.98788	-437.86537	-565.56885	322.31483	-448.10947	-639.51485	308.16645	-499.26991	321.56017	1060.85098	518.97228	595.93159	1070.23964	598.61328	490.04883	1161.45523	778.16467	282.01969	1141.33408	716.47751	430.46314	1550.80124	541.25084	428.62526	1624.40277	661.73050	402.70954	1724.06723	430.44933	505.26894	1757.33734	580.90889	351.54404	1745.87814	600.44853	635.51277	1503.13110	626.71997	732.97394	1170.62790	642.58858	667.75009	1160.08560	605.91381	755.04730	1209.95018	568.61504	815.96603	968.64799	510.02357	802.96875	987.15172	455.04730	749.84879	977.79015	466.67137	205.90099	1515.54962	650.30052	215.42454	1181.38779	675.92163	122.78696	1221.61911	662.19154	158.30307	1194.83315	731.26694	89.00278	962.33498	658.17650	95.64898	968.29453	614.43012	146.88833	967.77702	608.62202	626.83250	1015.85754	697.87079	227.91552	1020.60577	627.20978	590.53699	486.17008	591.96663	603.19214	501.34026	699.20120	482.79877	480.64793	669.91882	334.13845	509.95705	382.54963	293.09107	552.06062	487.87655	412.55672	513.06946	448.09528	598.19771	144.21277	633.91369	531.97388	143.10648	650.57175	587.83211	137.35403	715.82344	335.99682	228.83244	617.07020	299.31644	261.12574	674.92256	383.51116	253.90436	655.72952 
